<?xml version="1.0" standalone="no"?>
<!DOCTYPE svg PUBLIC "-//W3C//DTD SVG 20010904//EN"
 "http://www.w3.org/TR/2001/REC-SVG-20010904/DTD/svg10.dtd">
<svg version="1.0" xmlns="http://www.w3.org/2000/svg"
 width="512.000000pt" height="512.000000pt" viewBox="0 0 512.000000 512.000000"
 preserveAspectRatio="xMidYMid meet">
<metadata>
Created by potrace 1.14, written by Peter Selinger 2001-2017
</metadata>
<g transform="translate(0.000000,512.000000) scale(0.100000,-0.100000)"
fill="#000000" stroke="none">
<path d="M3322 4893 c-27 -11 -31 -26 -142 -573 -23 -113 -44 -214 -46 -225
-2 -11 -6 -31 -9 -45 -4 -14 -8 -36 -11 -50 -3 -14 -16 -79 -30 -145 -13 -66
-27 -133 -30 -150 -37 -215 -150 -468 -269 -605 -163 -187 -264 -243 -685
-379 -416 -135 -382 -120 -400 -180 -7 -24 -4 -37 13 -63 18 -26 40 -38 127
-68 630 -216 585 -199 700 -266 156 -90 297 -248 388 -436 68 -139 95 -227
143 -458 22 -107 42 -202 44 -210 6 -30 94 -457 110 -534 9 -44 18 -82 20 -85
2 -4 6 -27 10 -51 3 -25 8 -53 11 -62 5 -17 11 -43 19 -91 12 -65 59 -97 107
-73 13 6 28 23 35 36 6 14 38 158 72 320 33 162 79 383 101 490 22 107 52 251
66 320 74 362 220 619 447 786 111 82 160 103 597 252 287 99 290 100 305 136
16 39 9 79 -19 104 -11 11 -93 43 -181 72 -88 28 -236 77 -330 107 -253 82
-382 157 -508 293 -110 118 -199 276 -256 450 -24 74 -135 581 -167 765 -3 17
-11 58 -19 93 -8 34 -17 75 -20 91 -6 33 -72 354 -80 388 -10 44 -63 66 -113
46z"/>
<path d="M1732 4793 c-9 -16 -16 -42 -26 -98 -2 -11 -9 -40 -16 -65 -7 -25
-14 -54 -16 -65 -2 -11 -8 -41 -14 -66 -6 -26 -13 -53 -14 -60 -1 -8 -13 -61
-27 -119 -20 -89 -29 -110 -59 -141 -38 -39 -50 -44 -270 -99 -139 -35 -165
-48 -167 -79 -2 -25 22 -42 87 -64 346 -118 342 -116 374 -181 14 -28 48 -148
76 -266 54 -224 75 -285 100 -286 45 -2 47 5 140 369 43 170 55 200 92 233 13
13 105 49 208 84 102 35 193 67 203 72 21 11 22 51 2 68 -11 9 -187 62 -286
85 -93 21 -134 47 -162 100 -12 24 -51 169 -82 305 -39 170 -60 249 -71 268
-17 27 -59 29 -72 5z"/>
<path d="M972 2519 c-24 -9 -25 -13 -77 -264 -48 -236 -71 -315 -116 -400 -88
-166 -151 -213 -460 -345 -215 -92 -237 -104 -242 -128 -4 -18 0 -33 11 -44 9
-10 87 -42 172 -72 85 -30 180 -63 210 -75 110 -41 204 -115 267 -209 76 -114
99 -180 149 -417 2 -11 6 -29 9 -40 4 -19 34 -154 40 -185 2 -8 4 -23 4 -32 1
-10 12 -25 26 -34 39 -25 88 -4 114 49 15 33 101 340 116 416 10 54 41 145 68
201 64 133 154 192 447 291 204 68 250 94 250 138 0 16 -6 33 -12 39 -7 6
-107 45 -223 87 -247 91 -299 118 -380 199 -86 86 -111 145 -175 411 -41 171
-98 365 -115 391 -16 24 -52 34 -83 23z"/>
</g>
</svg>
